# File created by Blade
# Date/Time:  Wed Apr 08 14:55:03 2015
# Frame Rate: 120.000 fps
#------------------------------------------------------
:FULLY-SPECIFIED
:DEGREES
1711
root -3.006092 31.732733 -8.624568 14.908799 36.331642 0.017000
Spine -13.252970 16.043492 -9.448717
Head -2.183980 -27.856568 10.837949
LeftShoulder -26.819162 51.787355 1.785040
LeftArm 44.652217 14.983264 -71.187341
LeftForeArm 0.426400 -0.000000 120.031917
LeftHand 7.908098 -0.000000 1.986128
LeftHandThumb1 -26.253704 0.000000 33.147579
RightShoulder -0.780282 -1.389213 -19.541564
RightArm 31.357259 -44.473830 75.164981
RightForeArm 3.770842 -0.000000 107.567828
RightHand 9.710299 -0.000000 4.004320
RightHandThumb1 -24.326973 -0.000000 -32.862282
LeftUpLeg -33.605903 -7.936454 -1.175321
LeftLeg 9.952273 -0.000000 -0.000000
LeftFoot 4.713585 23.626636 -7.726391
LeftToeBase -5.433499 -0.000000 0.000000
RightUpLeg -6.187675 -10.126703 5.181647
RightLeg 29.984753 -0.000000 -0.000000
RightFoot -14.565760 -14.163781 13.059885
RightToeBase -27.733193 -0.000000 0.000000
1712
root -3.092253 31.717590 -8.778086 15.002577 35.602494 0.021034
Spine -13.240134 15.640878 -9.167205
Head -1.709241 -27.021647 10.244691
LeftShoulder -26.960170 51.690519 1.485290
LeftArm 44.765119 14.799429 -71.008108
LeftForeArm 0.284182 0.000000 120.034521
LeftHand 7.878610 -0.000000 1.967444
LeftHandThumb1 -26.253704 0.000000 33.147579
RightShoulder -0.744234 -1.483823 -19.620109
RightArm 31.938095 -44.752162 74.399117
RightForeArm 3.786325 0.000000 107.366560
RightHand 9.666247 -0.000000 4.183115
RightHandThumb1 -24.326973 -0.000000 -32.862282
LeftUpLeg -33.894479 -7.586837 -1.112414
LeftLeg 9.713412 -0.000000 -0.000000
LeftFoot 5.261527 23.732956 -7.830649
LeftToeBase -5.177542 -0.000000 0.000000
RightUpLeg -5.906316 -9.363549 5.134431
RightLeg 28.793672 -0.000000 -0.000000
RightFoot -15.524722 -14.563804 13.164725
RightToeBase -26.390570 -0.000000 0.000000
1713
root -3.183074 31.700492 -8.938904 15.063467 34.905405 0.031304
Spine -13.171579 15.191932 -8.854219
Head -1.181089 -26.141188 9.608181
LeftShoulder -27.045656 51.626459 1.260046
LeftArm 44.875305 14.599932 -70.926488
LeftForeArm 0.225466 0.000000 120.017667
LeftHand 7.893950 0.000000 1.957208
LeftHandThumb1 -26.253704 0.000000 33.147579
RightShoulder -0.610070 -1.530304 -19.661482
RightArm 32.236597 -44.856542 73.904270
RightForeArm 3.979421 -0.000000 107.196049
RightHand 9.700559 -0.000000 4.595733
RightHandThumb1 -24.326973 -0.000000 -32.862282
LeftUpLeg -34.193468 -7.140280 -1.110200
LeftLeg 9.557632 -0.000000 -0.000000
LeftFoot 5.801591 23.676817 -7.942196
LeftToeBase -4.902243 -0.000000 0.000000
RightUpLeg -5.644150 -8.645397 5.114653
RightLeg 27.633216 -0.000000 -0.000000
RightFoot -16.437944 -15.225566 12.928871
RightToeBase -25.024365 -0.000000 0.000000
1714
root -3.264844 31.687586 -9.095028 15.170364 34.243916 0.043527
Spine -13.155020 14.853841 -8.583987
Head -0.796046 -25.429102 9.062930
LeftShoulder -26.961249 51.517805 1.187707
LeftArm 44.946256 14.444142 -70.842447
LeftForeArm 0.099976 0.000000 120.004415
LeftHand 7.949078 0.000000 1.950013
LeftHandThumb1 -26.253704 0.000000 33.147579
RightShoulder -0.627002 -1.589959 -19.708451
RightArm 32.290325 -44.999656 73.597018
RightForeArm 4.010713 -0.000000 107.090510
RightHand 9.802117 -0.000000 4.801996
RightHandThumb1 -24.326973 -0.000000 -32.862282
LeftUpLeg -34.517701 -6.629252 -1.172653
LeftLeg 9.393421 -0.000000 -0.000000
LeftFoot 6.433615 23.580080 -7.938400
LeftToeBase -4.815166 -0.000000 0.000000
RightUpLeg -5.461115 -8.157630 5.066854
RightLeg 26.554335 -0.000000 -0.000000
RightFoot -17.246059 -15.760420 12.562298
RightToeBase -23.463733 -0.000000 0.000000
1715
root -3.341439 31.676604 -9.253991 15.308039 33.615963 0.036492
Spine -13.174537 14.446427 -8.272335
Head -0.430551 -24.662742 8.521424
LeftShoulder -27.000942 51.429807 1.037481
LeftArm 45.039825 14.304749 -70.791963
LeftForeArm -0.041182 -0.000000 119.945342
LeftHand 8.038069 0.000000 1.834958
LeftHandThumb1 -26.253704 0.000000 33.147579
RightShoulder -0.638217 -1.665795 -19.733960
RightArm 32.385240 -45.186496 73.198108
RightForeArm 3.511337 -0.000000 107.086952
RightHand 9.556285 -0.000000 4.582536
RightHandThumb1 -24.326973 -0.000000 -32.862282
LeftUpLeg -34.864338 -6.203889 -1.171176
LeftLeg 9.179445 -0.000000 -0.000000
LeftFoot 7.043089 23.537121 -8.072781
LeftToeBase -4.658000 -0.000000 0.000000
RightUpLeg -5.361964 -7.825285 5.022930
RightLeg 25.519714 -0.000000 -0.000000
RightFoot -17.922564 -15.994843 12.454006
RightToeBase -22.394511 -0.000000 0.000000
1716
root -3.421312 31.666527 -9.412984 15.440970 33.030129 0.011447
Spine -13.175349 14.089168 -7.954799
Head -0.138085 -23.981924 8.000643
LeftShoulder -26.949465 51.376524 0.984110
LeftArm 45.206292 14.268067 -70.679442
LeftForeArm 0.412951 0.000000 119.871247
LeftHand 8.033714 -0.000000 2.331299
LeftHandThumb1 -26.253704 0.000000 33.147579
RightShoulder -0.743367 -1.745119 -19.791367
RightArm 32.394583 -45.275802 72.985924
RightForeArm 3.337221 -0.000000 107.009442
RightHand 9.587361 0.000000 4.548229
RightHandThumb1 -24.326973 -0.000000 -32.862282
LeftUpLeg -35.253976 -5.696104 -1.208295
LeftLeg 9.041222 -0.000000 -0.000000
LeftFoot 7.695084 23.387794 -8.166786
LeftToeBase -4.681425 -0.000000 0.000000
RightUpLeg -5.336566 -7.467878 5.036908
RightLeg 24.569784 -0.000000 -0.000000
RightFoot -18.578179 -16.522983 12.232490
RightToeBase -21.127621 -0.000000 0.000000
1717
root -3.501549 31.656813 -9.570791 15.567045 32.481866 -0.032386
Spine -13.172855 13.754334 -7.625211
Head 0.106024 -23.339869 7.524739
LeftShoulder -26.776680 51.292791 1.065119
LeftArm 45.303089 14.207164 -70.662546
LeftForeArm 0.613752 0.000000 119.805023
LeftHand 8.007264 -0.000000 2.303477
LeftHandThumb1 -26.253704 0.000000 33.147579
RightShoulder -0.850617 -1.828425 -19.857240
RightArm 32.253251 -45.301180 72.941893
RightForeArm 3.274169 -0.000000 106.956263
RightHand 9.568838 -0.000000 4.701472
RightHandThumb1 -24.326973 -0.000000 -32.862282
LeftUpLeg -35.691350 -5.136040 -1.260044
LeftLeg 9.009138 -0.000000 -0.000000
LeftFoot 8.306358 23.104823 -8.344199
LeftToeBase -4.829457 -0.000000 0.000000
RightUpLeg -5.356817 -7.140538 5.095005
RightLeg 23.681581 -0.000000 -0.000000
RightFoot -19.178155 -17.201431 11.974022
RightToeBase -19.872503 -0.000000 0.000000
1718
root -3.581655 31.647370 -9.729414 15.683746 31.982867 -0.116378
Spine -13.148748 13.354233 -7.235222
Head 0.271471 -22.657429 7.042481
LeftShoulder -26.683421 51.183048 1.097090
LeftArm 45.365414 14.100375 -70.735984
LeftForeArm 0.674298 0.000000 119.774359
LeftHand 7.957618 -0.000000 1.691771
LeftHandThumb1 -26.253704 0.000000 33.147579
RightShoulder -0.955289 -1.861758 -19.915357
RightArm 32.360202 -45.387220 72.612039
RightForeArm 3.355443 -0.000000 106.868711
RightHand 9.629957 -0.000000 4.436237
RightHandThumb1 -24.326973 -0.000000 -32.862282
LeftUpLeg -36.161863 -4.628134 -1.247675
LeftLeg 9.005985 -0.000000 -0.000000
LeftFoot 8.872098 22.838610 -8.594322
LeftToeBase -4.906146 -0.000000 0.000000
RightUpLeg -5.440234 -6.837014 5.189287
RightLeg 22.900603 -0.000000 -0.000000
RightFoot -19.727304 -17.768227 11.875502
RightToeBase -18.690557 -0.000000 0.000000
1719
root -3.665817 31.638723 -9.888563 15.776805 31.513429 -0.236310
Spine -13.096056 12.946372 -6.804461
Head 0.394152 -22.004039 6.585482
LeftShoulder -26.564502 51.090057 1.152273
LeftArm 45.435076 13.968145 -70.843510
LeftForeArm 0.614647 -0.000000 119.764723
LeftHand 7.915583 -0.000000 1.397189
LeftHandThumb1 -26.253704 0.000000 33.147579
RightShoulder -1.012122 -1.952270 -20.006142
RightArm 31.996947 -45.298143 72.833748
RightForeArm 3.197434 -0.000000 106.890295
RightHand 9.640174 -0.000000 4.508320
RightHandThumb1 -24.326973 -0.000000 -32.862282
LeftUpLeg -36.685121 -4.074444 -1.220193
LeftLeg 9.117596 -0.000000 -0.000000
LeftFoot 9.347845 22.490409 -9.008984
LeftToeBase -4.923721 -0.000000 0.000000
RightUpLeg -5.570595 -6.562536 5.362227
RightLeg 22.159678 -0.000000 -0.000000
RightFoot -20.179053 -18.686202 11.486997
RightToeBase -17.493889 -0.000000 0.000000
1720
root -3.750601 31.631039 -10.047776 15.856314 31.077073 -0.343233
Spine -13.004076 12.458970 -6.356721
Head 0.514451 -21.272071 6.110126
LeftShoulder -26.569641 51.040978 1.105349
LeftArm 45.598617 13.916886 -70.899674
LeftForeArm 0.855391 -0.000000 119.740032
LeftHand 7.899413 -0.000000 1.812589
LeftHandThumb1 -26.253704 0.000000 33.147579
RightShoulder -0.984984 -1.992318 -20.095373
RightArm 31.669432 -45.181484 73.034977
RightForeArm 3.150773 -0.000000 106.890571
RightHand 9.647056 -0.000000 4.497989
RightHandThumb1 -24.326973 -0.000000 -32.862282
LeftUpLeg -37.193491 -3.598963 -1.148560
LeftLeg 9.249876 -0.000000 -0.000000
LeftFoot 9.715579 22.169858 -9.621381
LeftToeBase -4.647975 -0.000000 0.000000
RightUpLeg -5.718143 -6.296070 5.516111
RightLeg 21.524274 -0.000000 -0.000000
RightFoot -20.697453 -19.195756 11.574063
RightToeBase -16.637235 -0.000000 0.000000
1721
root -3.826455 31.625856 -10.200381 15.908641 30.714756 -0.459928
Spine -12.854301 12.051225 -5.929931
Head 0.416001 -20.670718 5.808664
LeftShoulder -26.380225 50.833800 1.228522
LeftArm 45.650043 13.870010 -70.903860
LeftForeArm 0.861393 0.000000 119.775935
LeftHand 7.888714 -0.000000 1.951437
LeftHandThumb1 -26.253704 0.000000 33.147579
RightShoulder -1.145283 -2.083746 -20.126390
RightArm 31.362075 -45.083290 73.163432
RightForeArm 3.303769 -0.000000 106.938023
RightHand 9.742166 -0.000000 4.563800
RightHandThumb1 -24.326973 -0.000000 -32.862282
LeftUpLeg -37.701152 -3.168075 -1.064782
LeftLeg 9.490408 -0.000000 -0.000000
LeftFoot 9.975047 21.798261 -10.545196
LeftToeBase -4.694203 -0.000000 0.000000
RightUpLeg -5.846959 -6.319740 5.670855
RightLeg 20.893165 -0.000000 -0.000000
RightFoot -21.014962 -19.805202 11.222302
RightToeBase -15.667861 -0.000000 0.000000
1722
root -3.906764 31.620537 -10.355562 15.958504 30.292719 -0.563402
Spine -12.692305 11.675432 -5.543495
Head 0.338648 -20.054776 5.513277
LeftShoulder -26.256564 50.705171 1.295277
LeftArm 45.850848 13.809940 -70.884308
LeftForeArm 0.702606 -0.000000 119.777516
LeftHand 7.969700 0.000000 2.345213
LeftHandThumb1 -26.253704 0.000000 33.147579
RightShoulder -1.206190 -2.178706 -20.130926
RightArm 31.123637 -44.923928 73.250840
RightForeArm 3.412611 -0.000000 106.990711
RightHand 9.597773 0.000000 4.336283
RightHandThumb1 -24.326973 -0.000000 -32.862282
LeftUpLeg -38.209908 -2.731205 -0.957227
LeftLeg 9.753812 -0.000000 -0.000000
LeftFoot 10.169710 21.428553 -11.427227
LeftToeBase -4.299425 -0.000000 0.000000
RightUpLeg -6.040640 -6.293725 5.788447
RightLeg 20.401425 -0.000000 -0.000000
RightFoot -21.376712 -20.095987 11.140255
RightToeBase -15.029529 -0.000000 0.000000
